<svg xmlns="http://www.w3.org/2000/svg" xmlns:xlink="http://www.w3.org/1999/xlink" version="1.1" width="1000" height="1000" viewBox="0 0 1000 1000" xml:space="preserve">
<desc>Created with Fabric.js 3.5.0</desc>
<defs>
</defs>
<rect x="0" y="0" width="100%" height="100%" fill="rgba(255,255,255,0)"/>
<g transform="matrix(37.7162 0 0 39.2335 500.0006 555.8882)" id="120144">
<path style="stroke: none; stroke-width: 1; stroke-dasharray: none; stroke-linecap: butt; stroke-dashoffset: 0; stroke-linejoin: miter; stroke-miterlimit: 4; is-custom-font: none; font-file-url: none; fill: rgb(255,255,255); fill-rule: evenodd; opacity: 1;" vector-effect="non-scaling-stroke" transform=" translate(-12, -8)" d="M 19.4 6 C 18.7 2.6 15.7 0 12 0 C 9.1 0 6.6 1.6 5.4 4 C 2.3 4.4 0 6.9 0 10 C 0 13.3 2.7 16 6 16 L 19 16 C 21.8 16 24 13.8 24 11 C 24 8.4 21.9 6.2 19.4 6 L 19.4 6 Z M 17 9 L 12 14 L 7 9 L 10 9 L 10 5 L 14 5 L 14 9 L 17 9 L 17 9 Z" stroke-linecap="round"/>
</g>
</svg>