<svg xmlns="http://www.w3.org/2000/svg" xmlns:xlink="http://www.w3.org/1999/xlink" version="1.1" width="1000" height="1000" viewBox="0 0 1000 1000" xml:space="preserve">
<desc>Created with Fabric.js 3.5.0</desc>
<defs>
</defs>
<rect x="0" y="0" width="100%" height="100%" fill="rgba(255,255,255,0)"/>
<g transform="matrix(39.3793 0 0 41.5276 499.9998 529.9397)" id="353147">
<path style="stroke: none; stroke-width: 1; stroke-dasharray: none; stroke-linecap: butt; stroke-dashoffset: 0; stroke-linejoin: miter; stroke-miterlimit: 4; is-custom-font: none; font-file-url: none; fill: rgb(255,255,255); fill-rule: nonzero; opacity: 1;" vector-effect="non-scaling-stroke" transform=" translate(-12, -12)" d="M 20 3 H 4 C 1.8 3 0 4.8 0 7 v 10 c 0 2.2 1.8 4 4 4 h 16 c 2.2 0 4 -1.8 4 -4 V 7 C 24 4.8 22.2 3 20 3 z M 21.6 8.8 l -7.9 5.3 c -0.5 0.3 -1.1 0.5 -1.7 0.5 s -1.2 -0.2 -1.7 -0.5 L 2.4 8.8 C 2 8.5 1.9 7.9 2.2 7.4 C 2.5 7 3.1 6.9 3.6 7.2 l 7.9 5.3 c 0.3 0.2 0.8 0.2 1.1 0 l 7.9 -5.3 c 0.5 -0.3 1.1 -0.2 1.4 0.3 C 22.1 7.9 22 8.5 21.6 8.8 z" stroke-linecap="round"/>
</g>
</svg>