<svg xmlns="http://www.w3.org/2000/svg" xmlns:xlink="http://www.w3.org/1999/xlink" version="1.1" width="1000" height="1000" viewBox="0 0 1000 1000" xml:space="preserve">
<desc>Created with Fabric.js 3.5.0</desc>
<defs>
</defs>
<rect x="0" y="0" width="100%" height="100%" fill="#ffffff"/>
<g transform="matrix(9.4576 0 0 9.4576 500.0005 500.0009)" id="503976">
<path style="stroke: none; stroke-width: 1; stroke-dasharray: none; stroke-linecap: butt; stroke-dashoffset: 0; stroke-linejoin: miter; stroke-miterlimit: 4; is-custom-font: none; font-file-url: none; fill: rgb(255,255,255); fill-rule: nonzero; opacity: 1;" vector-effect="non-scaling-stroke" transform=" translate(-48.0615, -48.0615)" d="M 72.089 0.02 L 59.624 0 C 45.62 0 36.57 9.285 36.57 23.656 v 10.907 H 24.037 c -1.083 0 -1.96 0.878 -1.96 1.961 v 15.803 c 0 1.083 0.878 1.96 1.96 1.96 h 12.533 v 39.876 c 0 1.083 0.877 1.96 1.96 1.96 h 16.352 c 1.083 0 1.96 -0.878 1.96 -1.96 V 54.287 h 14.654 c 1.083 0 1.96 -0.877 1.96 -1.96 l 0.006 -15.803 c 0 -0.52 -0.207 -1.018 -0.574 -1.386 c -0.367 -0.368 -0.867 -0.575 -1.387 -0.575 H 56.842 v -9.246 c 0 -4.444 1.059 -6.7 6.848 -6.7 l 8.397 -0.003 c 1.082 0 1.959 -0.878 1.959 -1.96 V 1.98 C 74.046 0.899 73.17 0.022 72.089 0.02 z" stroke-linecap="round"/>
</g>
</svg>