<svg xmlns="http://www.w3.org/2000/svg" xmlns:xlink="http://www.w3.org/1999/xlink" version="1.1" width="1000" height="1000" viewBox="0 0 1000 1000" xml:space="preserve">
<desc>Created with Fabric.js 3.5.0</desc>
<defs>
</defs>
<rect x="0" y="0" width="100%" height="100%" fill="rgba(255,255,255,0)"/>
<g transform="matrix(1.8147 0 0 1.881 499.9955 500.0001)" id="655738">
<path style="stroke: none; stroke-width: 1; stroke-dasharray: none; stroke-linecap: butt; stroke-dashoffset: 0; stroke-linejoin: round; stroke-miterlimit: 2; is-custom-font: none; font-file-url: none; fill: rgb(255,255,255); fill-rule: evenodd; opacity: 1;" vector-effect="non-scaling-stroke" transform=" translate(-256, -256)" d="M 449.446 0 c 34.525 0 62.554 28.03 62.554 62.554 l 0 386.892 c 0 34.524 -28.03 62.554 -62.554 62.554 l -386.892 0 c -34.524 0 -62.554 -28.03 -62.554 -62.554 l 0 -386.892 c 0 -34.524 28.029 -62.554 62.554 -62.554 l 386.892 0 Z m -193.446 81 c -47.527 0 -53.487 0.201 -72.152 1.053 c -18.627 0.85 -31.348 3.808 -42.48 8.135 c -11.508 4.472 -21.267 10.456 -30.996 20.184 c -9.729 9.729 -15.713 19.489 -20.185 30.996 c -4.326 11.132 -7.284 23.853 -8.135 42.48 c -0.851 18.665 -1.052 24.625 -1.052 72.152 c 0 47.527 0.201 53.487 1.052 72.152 c 0.851 18.627 3.809 31.348 8.135 42.48 c 4.472 11.507 10.456 21.267 20.185 30.996 c 9.729 9.729 19.488 15.713 30.996 20.185 c 11.132 4.326 23.853 7.284 42.48 8.134 c 18.665 0.852 24.625 1.053 72.152 1.053 c 47.527 0 53.487 -0.201 72.152 -1.053 c 18.627 -0.85 31.348 -3.808 42.48 -8.134 c 11.507 -4.472 21.267 -10.456 30.996 -20.185 c 9.729 -9.729 15.713 -19.489 20.185 -30.996 c 4.326 -11.132 7.284 -23.853 8.134 -42.48 c 0.852 -18.665 1.053 -24.625 1.053 -72.152 c 0 -47.527 -0.201 -53.487 -1.053 -72.152 c -0.85 -18.627 -3.808 -31.348 -8.134 -42.48 c -4.472 -11.507 -10.456 -21.267 -20.185 -30.996 c -9.729 -9.728 -19.489 -15.712 -30.996 -20.184 c -11.132 -4.327 -23.853 -7.285 -42.48 -8.135 c -18.665 -0.852 -24.625 -1.053 -72.152 -1.053 Z m 0 31.532 c 46.727 0 52.262 0.178 70.715 1.02 c 17.062 0.779 26.328 3.63 32.495 6.025 c 8.169 3.175 13.998 6.968 20.122 13.091 c 6.124 6.124 9.916 11.954 13.091 20.122 c 2.396 6.167 5.247 15.433 6.025 32.495 c 0.842 18.453 1.021 23.988 1.021 70.715 c 0 46.727 -0.179 52.262 -1.021 70.715 c -0.778 17.062 -3.629 26.328 -6.025 32.495 c -3.175 8.169 -6.967 13.998 -13.091 20.122 c -6.124 6.124 -11.953 9.916 -20.122 13.091 c -6.167 2.396 -15.433 5.247 -32.495 6.025 c -18.45 0.842 -23.985 1.021 -70.715 1.021 c -46.73 0 -52.264 -0.179 -70.715 -1.021 c -17.062 -0.778 -26.328 -3.629 -32.495 -6.025 c -8.169 -3.175 -13.998 -6.967 -20.122 -13.091 c -6.124 -6.124 -9.917 -11.953 -13.091 -20.122 c -2.396 -6.167 -5.247 -15.433 -6.026 -32.495 c -0.842 -18.453 -1.02 -23.988 -1.02 -70.715 c 0 -46.727 0.178 -52.262 1.02 -70.715 c 0.779 -17.062 3.63 -26.328 6.026 -32.495 c 3.174 -8.168 6.967 -13.998 13.091 -20.122 c 6.124 -6.123 11.953 -9.916 20.122 -13.091 c 6.167 -2.395 15.433 -5.246 32.495 -6.025 c 18.453 -0.842 23.988 -1.02 70.715 -1.02 Z m 0 53.603 c -49.631 0 -89.865 40.234 -89.865 89.865 c 0 49.631 40.234 89.865 89.865 89.865 c 49.631 0 89.865 -40.234 89.865 -89.865 c 0 -49.631 -40.234 -89.865 -89.865 -89.865 Z m 0 148.198 c -32.217 0 -58.333 -26.116 -58.333 -58.333 c 0 -32.217 26.116 -58.333 58.333 -58.333 c 32.217 0 58.333 26.116 58.333 58.333 c 0 32.217 -26.116 58.333 -58.333 58.333 Z m 114.416 -151.748 c 0 11.598 -9.403 20.999 -21.001 20.999 c -11.597 0 -20.999 -9.401 -20.999 -20.999 c 0 -11.598 9.402 -21 20.999 -21 c 11.598 0 21.001 9.402 21.001 21 Z" stroke-linecap="round"/>
</g>
</svg>